<?xml version="1.0" encoding="utf-8"?>
<!-- Generator: Adobe Illustrator 19.2.0, SVG Export Plug-In . SVG Version: 6.00 Build 0)  -->
<svg version="1.1" id="图层_1" xmlns="http://www.w3.org/2000/svg" xmlns:xlink="http://www.w3.org/1999/xlink" x="0px" y="0px"
	 viewBox="0 0 180 30" style="enable-background:new 0 0 180 30;" xml:space="preserve">
<style type="text/css">
	.st0{fill:#4b73eb;}
</style>
<title>logo</title>
<path class="st0" d="M175.3,11.8c-0.5,0-1,0.1-1.4,0.4c-0.3,0.2-0.6,0.5-0.6,0.9c0,0.8,0.6,1.5,1.4,1.7l1.6,0.7
	c0.8,0.3,1.6,0.8,2.2,1.4c0.5,0.6,0.7,1.3,0.7,2c0,1-0.4,1.9-1.2,2.5c-1,0.7-2.2,1-3.4,0.9c-1.3,0-2.7-0.3-3.9-0.9l0.9-2
	c0.9,0.6,2,1,3.1,1.1c1.4,0,2.1-0.5,2.1-1.6c0-0.8-0.7-1.4-2.1-2c-0.7-0.3-1.5-0.6-2.1-1c-0.4-0.2-0.7-0.5-1-0.8s-0.5-0.6-0.6-0.9
	c-0.1-0.3-0.2-0.7-0.2-1c0-0.9,0.4-1.8,1.1-2.3c0.9-0.6,2-0.9,3-0.8c1.2,0.1,2.4,0.3,3.6,0.8l-0.7,1.9
	C177.2,12.2,176.2,11.8,175.3,11.8z M166.3,21.9c-0.5-0.3-0.8-0.7-1-1.2c-1.1,1.1-2.7,1.7-4.2,1.6c-1,0-1.9-0.3-2.6-1
	c-0.7-0.6-1.1-1.5-1.1-2.5c0-1.2,0.7-2.4,1.7-3c1.3-0.9,2.8-1.3,4.4-1.2c0.6,0,1.1,0.1,1.6,0.3c0.2-1.4-0.7-2.6-2.1-2.8
	c-0.2,0-0.5,0-0.7,0c-1.2-0.1-2.4,0.3-3.3,1.1l-0.9-1.7c0.6-0.4,1.2-0.7,1.8-0.8c0.7-0.2,1.5-0.3,2.2-0.3c1.5-0.1,2.9,0.3,4.1,1.1
	c0.9,1,1.4,2.3,1.3,3.7v4.2c-0.1,0.8,0.3,1.6,1,2.1v1C167.7,22.3,167,22.1,166.3,21.9z M165.1,16.3c-0.5-0.1-1-0.2-1.5-0.2
	c-1,0-2,0.2-2.8,0.8c-0.7,0.4-1.1,1.1-1.1,1.9c0,1.2,0.8,1.8,2.4,1.8c1.2,0,2.3-0.6,3.1-1.5L165.1,16.3L165.1,16.3z M149.3,22.2
	l-5.6-12h2.5l3.4,8.2l3.5-8.2h2.4l-5.7,12H149.3z M139.1,15.2c0.1-0.9-0.1-1.8-0.6-2.6c-0.5-0.6-1.3-0.8-2.1-0.7
	c-0.6,0-1.1,0.2-1.6,0.4s-1,0.6-1.3,1.1V22h-2.3V10.3h1.6l0.7,1.5c0.8-1.2,2.3-1.9,3.7-1.7c2.8,0,4.3,1.6,4.3,4.7V22h-2.3
	L139.1,15.2L139.1,15.2z M125.8,21.9c-0.5-0.3-0.8-0.7-1-1.2c-1.1,1.1-2.7,1.7-4.2,1.6c-1,0-1.9-0.3-2.6-1c-0.7-0.6-1.1-1.5-1.1-2.5
	c0-1.2,0.7-2.4,1.7-3c1.3-0.9,2.8-1.3,4.4-1.2c0.6,0,1.1,0.1,1.6,0.3c0.2-1.4-0.8-2.6-2.1-2.8c-0.2,0-0.4,0-0.7,0
	c-1.2-0.1-2.4,0.3-3.3,1.1l-1-1.7c0.6-0.4,1.2-0.7,1.8-0.8c0.7-0.2,1.5-0.3,2.2-0.3c1.5-0.1,2.9,0.3,4.1,1.1c0.9,1,1.4,2.3,1.3,3.7
	v4.2c-0.1,0.8,0.3,1.6,1,2.1v1C127.2,22.3,126.4,22.2,125.8,21.9L125.8,21.9z M124.6,16.3c-0.5-0.1-1-0.2-1.5-0.2
	c-1,0-2,0.2-2.8,0.8c-0.7,0.4-1.1,1.1-1.1,1.9c0,1.2,0.8,1.8,2.4,1.8c1.2,0,2.3-0.6,3.1-1.5L124.6,16.3L124.6,16.3z M109,20.3
	c1.5,0.1,2.9-0.5,3.8-1.6l1.3,1.7c-1.5,1.3-3.4,2-5.4,1.9c-2.1,0.1-4.1-0.7-5.5-2.3c-1.4-1.7-2.1-3.8-2-6c-0.1-2.2,0.7-4.3,2.1-6
	c1.4-1.6,3.4-2.4,5.5-2.4c1.6-0.1,3.1,0.2,4.5,0.9l-0.8,1.9c-1.1-0.6-2.4-0.9-3.7-0.8c-1.5,0-2.9,0.6-3.8,1.8c-1,1.4-1.5,3-1.4,4.7
	c-0.1,1.6,0.4,3.2,1.5,4.4S107.6,20.4,109,20.3z M96.6,21.9c-0.5-0.3-0.8-0.7-1-1.2c-1.1,1.1-2.7,1.7-4.2,1.6c-1,0-1.9-0.3-2.6-1
	c-0.7-0.6-1.1-1.5-1.1-2.5c0-1.2,0.7-2.4,1.7-3c1.3-0.9,2.8-1.3,4.4-1.2c0.6,0,1.1,0.1,1.6,0.3c0.2-1.4-0.7-2.6-2.1-2.8
	c-0.2,0-0.5,0-0.7,0c-1.2-0.1-2.4,0.3-3.3,1.1l-1-1.7c0.6-0.4,1.2-0.6,1.8-0.8c0.7-0.2,1.5-0.3,2.2-0.3c1.5-0.1,2.9,0.3,4.1,1.1
	c0.9,1,1.4,2.3,1.3,3.7v4.2c-0.1,0.8,0.3,1.6,1,2.1v1C98,22.3,97.3,22.2,96.6,21.9z M95.4,16.3c-0.5-0.1-1-0.2-1.5-0.2
	c-1,0-2,0.2-2.8,0.8C90.4,17.3,90,18,90,18.8c0,1.3,0.8,1.9,2.4,1.9c1.2,0,2.3-0.6,3.1-1.5L95.4,16.3L95.4,16.3z M82.3,22.2
	c-1,0-1.9-0.3-2.6-1s-1.1-1.6-1.1-2.6v-6.7h-1.5v-1.6h1.5V7.8L80.9,7v3.3h3.6v1.6h-3.6v5.8c-0.1,0.7,0.1,1.5,0.6,2.1
	c0.5,0.5,1.1,0.7,1.8,0.6c0.6,0,1.3-0.1,1.8-0.4l0.4,1.8C84.4,22.1,83.4,22.3,82.3,22.2z M72.5,21.9c-0.5-0.3-0.8-0.7-1-1.2
	c-1.1,1.1-2.6,1.7-4.2,1.6c-1,0-1.9-0.3-2.6-1c-0.7-0.6-1.1-1.5-1.1-2.5c0-1.2,0.7-2.4,1.7-3c1.3-0.9,2.8-1.3,4.4-1.2
	c0.6,0,1.1,0.1,1.6,0.3c0.2-1.4-0.7-2.6-2.1-2.8c-0.2,0-0.5,0-0.7,0c-1.2-0.1-2.4,0.3-3.3,1.1l-0.9-1.7c0.6-0.4,1.2-0.7,1.8-0.8
	c0.7-0.2,1.5-0.3,2.2-0.3c1.5-0.1,2.9,0.3,4.1,1.1c0.9,1,1.4,2.3,1.3,3.7v4.2c-0.1,0.8,0.3,1.6,1,2.1v1
	C73.9,22.3,73.2,22.1,72.5,21.9z M71.3,16.3c-0.5-0.1-1-0.2-1.5-0.2c-1,0-2,0.2-2.8,0.8c-0.7,0.4-1.1,1.1-1.1,1.9
	c0,1.2,0.8,1.8,2.4,1.8c1.2,0,2.3-0.6,3.1-1.5L71.3,16.3L71.3,16.3z M51.8,22.4h-3.7V6.7c2.4-0.1,3.9-0.1,4.5-0.1
	c2.2-0.1,4.4,0.6,6.1,2c1.5,1.3,2.3,3.3,2.3,5.3C60.9,19.6,57.9,22.4,51.8,22.4z M58.3,14.1c0-3.7-1.9-5.6-5.8-5.6
	c-0.2,0-0.9,0-1.9,0.1v11.7c0.7,0.1,1.4,0.1,2.1,0.1c1.6,0.1,3.1-0.5,4.1-1.7C57.8,17.5,58.4,15.8,58.3,14.1z M26.1,27
	c-2.7,1.5-5.8,2.3-8.9,2.3C13,29.4,9,28,5.8,25.3c-3.4-3-5.1-7.6-5.1-13.7V0.7h3v5.9c-0.4,1.9-1.3,3.5-1.3,4.8
	c-0.1,3.4,1.4,6.7,3.9,9c2.6,2.4,6.1,3.6,10.6,3.6s8-1.2,10.6-3.6c2.6-2.3,4-5.7,3.9-9.2c0-1.6-0.3-3.2-0.7-4.8h-0.4V0.7h3v9.6
	c0,4.7-0.6,8.3-1.7,10.8S28.5,25.7,26.1,27z M6.6,3.6c0.6,0.2,1.3,0.3,2,0.4h16.7c0.7,0,1.4-0.2,2.1-0.4v2.9H6.6V3.6z"/>
</svg>
